<svg width="160" height="50" viewBox="0 0 160 50" fill="none" xmlns="http://www.w3.org/2000/svg">
<path d="M54.7134 40V8.00781H65.1724C68.644 8.00781 71.2515 8.72559 72.9946 10.1611C74.7524 11.5967 75.6313 13.7207 75.6313 16.5332C75.6313 18.0273 75.2065 19.353 74.3569 20.5103C73.5073 21.6528 72.3501 22.5391 70.8853 23.1689C72.6138 23.6523 73.9761 24.5752 74.9722 25.9375C75.9829 27.2852 76.4883 28.8965 76.4883 30.7715C76.4883 33.6426 75.5581 35.8984 73.6978 37.5391C71.8374 39.1797 69.208 40 65.8096 40H54.7134ZM58.9321 25.0366V36.5503H65.8975C67.8604 36.5503 69.4058 36.0449 70.5337 35.0342C71.6763 34.0088 72.2476 32.6025 72.2476 30.8154C72.2476 26.9629 70.1528 25.0366 65.9634 25.0366H58.9321ZM58.9321 21.6528H65.3042C67.1499 21.6528 68.6221 21.1914 69.7207 20.2686C70.834 19.3457 71.3906 18.0933 71.3906 16.5112C71.3906 14.7534 70.8779 13.479 69.8525 12.688C68.8271 11.8823 67.2671 11.4795 65.1724 11.4795H58.9321V21.6528ZM86.5298 40H82.4648V16.2256H86.5298V40ZM82.1353 9.91943C82.1353 9.26025 82.333 8.70361 82.7285 8.24951C83.1387 7.79541 83.7393 7.56836 84.5303 7.56836C85.3213 7.56836 85.9219 7.79541 86.332 8.24951C86.7422 8.70361 86.9473 9.26025 86.9473 9.91943C86.9473 10.5786 86.7422 11.1279 86.332 11.5674C85.9219 12.0068 85.3213 12.2266 84.5303 12.2266C83.7393 12.2266 83.1387 12.0068 82.7285 11.5674C82.333 11.1279 82.1353 10.5786 82.1353 9.91943ZM96.8789 36.6821H110.788V40H91.9131V37.0117L105.031 19.5874H92.1108V16.2256H110.128V19.104L96.8789 36.6821ZM119.796 40H115.731V16.2256H119.796V40ZM115.402 9.91943C115.402 9.26025 115.6 8.70361 115.995 8.24951C116.405 7.79541 117.006 7.56836 117.797 7.56836C118.588 7.56836 119.188 7.79541 119.599 8.24951C120.009 8.70361 120.214 9.26025 120.214 9.91943C120.214 10.5786 120.009 11.1279 119.599 11.5674C119.188 12.0068 118.588 12.2266 117.797 12.2266C117.006 12.2266 116.405 12.0068 115.995 11.5674C115.6 11.1279 115.402 10.5786 115.402 9.91943ZM128.322 40V19.3677H124.564V16.2256H128.322V13.7866C128.322 11.2378 129.003 9.26758 130.365 7.87598C131.728 6.48438 133.654 5.78857 136.144 5.78857C137.082 5.78857 138.012 5.91309 138.935 6.16211L138.715 9.45801C138.026 9.32617 137.294 9.26025 136.518 9.26025C135.199 9.26025 134.181 9.64844 133.463 10.4248C132.746 11.1865 132.387 12.2852 132.387 13.7207V16.2256H137.462V19.3677H132.387V40H128.322ZM149.745 34.0454L155.282 16.2256H159.633L150.075 43.6694C148.595 47.6245 146.244 49.6021 143.021 49.6021L142.252 49.5361L140.736 49.2505V45.9546L141.835 46.0425C143.212 46.0425 144.281 45.7642 145.043 45.2075C145.819 44.6509 146.457 43.6328 146.955 42.1533L147.855 39.7363L139.374 16.2256H143.812L149.745 34.0454Z" fill="black"/>
<line x1="55" y1="48.5" x2="135" y2="48.5" stroke="#D81939" stroke-width="3"/>
<circle cx="25" cy="25" r="25" fill="#EDF77A"/>
<path d="M50 25C50 29.9445 48.5338 34.778 45.7867 38.8893C43.0397 43.0005 39.1352 46.2048 34.5671 48.097C29.9989 49.9892 24.9723 50.4843 20.1227 49.5196C15.2732 48.555 10.8186 46.174 7.32233 42.6777C3.82602 39.1814 1.445 34.7268 0.480368 29.8773C-0.484263 25.0277 0.0108209 20.0011 1.90301 15.4329C3.7952 10.8648 6.99952 6.96029 11.1107 4.21326C15.222 1.46622 20.0555 -5.8963e-08 25 0L25 25H50Z" fill="#D81939"/>
</svg>
